<svg width="48" height="49" viewBox="0 0 48 49" fill="none" xmlns="http://www.w3.org/2000/svg">
<path d="M3.97448 20.4896C5.52453 12.9063 11.2677 6.83726 18.692 4.77053C19.316 4.59764 19.626 4.5102 19.7949 4.69501C19.9638 4.88181 19.8386 5.18785 19.5922 5.80389L17.8852 9.55978M27.8214 4.59167C35.4047 6.14172 41.4737 11.8848 43.5404 19.3092C43.7133 19.9332 43.8008 20.2432 43.616 20.4121C43.4292 20.581 43.1231 20.4558 42.5071 20.2094L38.7512 18.5024M43.7193 28.4386C42.1692 36.0219 36.4261 42.0909 29.0018 44.1576C28.3778 44.3305 28.0678 44.418 27.8989 44.2332C27.73 44.0464 27.8552 43.7403 28.1016 43.1243L29.8086 39.3684M19.8724 44.3365C12.2891 42.7864 6.22006 37.0433 4.15333 29.619C3.98044 28.995 3.893 28.685 4.07782 28.5161C4.26462 28.3472 4.57065 28.4723 5.1867 28.7188L8.94258 30.4258M29.8086 24.4641C29.8086 26.0452 29.1805 27.5616 28.0625 28.6797M29.8086 24.4641C29.8086 22.8829 29.1805 21.3665 28.0625 20.2485M29.8086 24.4641H32.7895M28.0625 28.6797C26.9444 29.7977 25.428 30.4258 23.8469 30.4258M28.0625 28.6797L30.1703 30.7875M23.8469 30.4258C22.2657 30.4258 20.7494 29.7977 19.6313 28.6797M23.8469 30.4258V33.4067M28.0625 20.2485C26.9444 19.1305 25.428 18.5024 23.8469 18.5024M28.0625 20.2485L30.1703 18.1407M23.8469 18.5024C22.2657 18.5024 20.7494 19.1305 19.6313 20.2485M23.8469 18.5024V15.5215M19.6313 28.6797C18.5133 27.5616 17.8852 26.0452 17.8852 24.4641M19.6313 28.6797L17.5235 30.7875M17.8852 24.4641C17.8852 22.8829 18.5133 21.3665 19.6313 20.2485M17.8852 24.4641H14.9043M19.6313 20.2485L17.5235 18.1407" stroke="white" stroke-width="3" stroke-linecap="round" stroke-linejoin="round"/>
</svg>
