<svg width="1728" height="677" viewBox="0 0 1728 677" fill="none" xmlns="http://www.w3.org/2000/svg">
<path d="M1837.02 183.684C1514.6 84.531 1192.19 234.79 877.321 277.175C763.986 292.324 662.761 284.061 566.563 239.84C506.696 212.297 449.571 178.481 380.336 161.497C234.097 125.539 68.207 165.016 -73.2336 124.467C-77.8036 123.09 -84.8871 121.866 -88.7715 120.795C22.9644 152.928 144.297 141.605 262.888 145.889C426.036 151.704 515.379 240.758 659.79 274.88C819.968 312.827 997.968 266.311 1149.69 230.659C1359 181.695 1603.03 112.839 1821.02 180.012C1826.28 181.542 1831.99 182.307 1837.02 183.837" fill="#BCBEC0" fill-opacity="0.2"/>
<path d="M1375.22 100.138C1206.13 94.6299 1063.78 12.3085 894.458 1.29149C803.973 -4.37002 730.396 40.157 666.645 76.7272C632.37 96.313 598.781 116.052 561.993 133.342C544.17 141.758 524.747 148.032 504.183 153.234C487.502 157.365 450.028 151.092 455.512 151.398C450.028 150.939 444.544 150.327 438.832 149.868C511.495 167.158 568.848 209.696 640.139 231.883C677.156 243.359 716.229 248.715 756.674 252.234C883.262 263.557 1003.45 242.288 1110.39 196.231C1137.12 184.755 1200.65 156.447 1189.91 129.976C1181.68 110.084 1143.98 94.6299 1119.76 84.99C1072.23 66.0163 1013.05 56.5294 957.752 54.9993C890.345 53.0101 828.651 62.3439 767.642 81.7766C730.396 93.5587 697.492 111.002 666.417 128.905C644.252 141.605 625.287 156.6 606.093 171.137C605.179 171.902 670.301 189.345 674.643 190.416C749.133 207.401 837.791 210.002 914.795 206.483C919.136 206.177 952.726 178.94 957.296 175.727C973.062 164.557 996.826 144.206 975.347 133.189C954.553 122.784 936.045 111.308 909.539 108.707C826.594 100.291 758.502 137.474 697.264 170.525C700.235 168.994 710.974 173.585 714.173 172.055C767.87 142.982 836.191 103.505 910.453 108.86C904.969 108.248 899.257 107.789 893.773 107.33C911.596 109.931 925.763 114.828 940.387 122.019C970.548 136.862 972.605 139.463 951.812 164.098C887.603 241.064 720.114 205.565 623.459 172.667C618.66 170.984 749.819 96.772 764.9 90.6515C806.943 73.3609 854.471 63.5681 902.684 58.2126C985.401 49.0318 1075.66 65.5573 1140.78 100.75C1272.17 171.749 941.529 244.43 875.493 251.622C719.657 268.606 611.348 218.877 493.9 163.027C469.679 151.551 448.2 150.48 420.781 148.797L420.552 148.797C566.563 194.701 695.893 58.5186 808.314 17.3579C936.274 -29.6173 1107.19 46.5836 1226.92 77.6454C1280.85 91.5696 1335.46 100.138 1392.81 101.822C1387.33 101.822 1381.62 100.444 1375.91 100.291" fill="#BCBEC0" fill-opacity="0.2"/>
<path d="M1656.5 152.01C1551.85 205.412 1415.66 226.528 1289.53 246.114C1254.12 251.622 1295.02 262.945 1312.84 274.268C1332.49 282.225 1326.32 283.602 1294.1 278.246C1274.68 277.634 1255.26 277.481 1235.61 277.94C1149.92 278.705 1064.92 291.559 981.059 301.657C904.284 310.838 827.965 316.806 750.047 316.041C647.223 314.97 552.167 284.826 463.738 252.999C345.376 210.308 234.326 160.885 103.624 136.097C98.5974 135.179 91.5138 134.26 87.6294 133.495C336.464 180.471 528.403 316.194 796.661 319.101C892.402 320.172 988.143 305.483 1081.83 294.16C1128.67 288.498 1175.74 284.214 1223.27 281.613C1242.69 280.695 1261.88 280.389 1281.31 280.389C1290.9 280.389 1359.68 292.171 1329.52 277.022C1319.69 270.902 1310.1 264.781 1300.27 258.661C1277.19 244.277 1305.3 249.021 1326.32 245.655C1364.48 239.84 1402.18 233.107 1439.66 225.916C1521.92 210.155 1604.4 189.652 1672.95 154.764C1670.21 156.142 1659.24 150.48 1656.27 152.01" fill="#BCBEC0" fill-opacity="0.2"/>
<path d="M1692.6 187.815C1589.09 249.02 1492.21 273.655 1359.91 294.771C1232.64 315.122 1106.51 331.647 976.49 343.889C909.539 350.162 843.732 363.015 777.924 373.114C660.247 391.323 569.99 382.907 457.112 370.972C323.669 357.201 176.287 349.091 62.4948 295.995C56.7823 296.454 51.0699 296.76 45.3573 297.219C122.818 309.46 170.346 358.731 233.412 387.956C290.537 414.581 355.43 422.079 423.066 424.986C582.558 431.565 749.362 456.507 908.625 446.102C1000.25 440.134 1089.37 423.303 1177.57 406.165C1341.4 374.338 1507.06 354.6 1646.68 286.509C1677.52 271.513 1708.6 258.048 1743.33 247.337C1802.74 228.822 1767.09 276.104 1755.9 291.711C1725.05 333.943 1676.38 369.442 1624.28 400.351C1511.18 467.218 1364.02 506.542 1221.9 536.839C1119.76 558.72 1018.3 573.868 909.768 567.748C814.712 562.239 721.256 547.703 625.973 543.571C528.175 539.44 432.206 543.571 336.008 528.576C234.326 512.663 144.983 472.879 42.387 457.119C40.1019 456.813 26.1636 459.261 25.478 458.343C102.939 553.823 231.127 595.596 382.621 621.914C570.676 655.271 766.728 681.437 961.866 676.387C1057.38 673.786 1153.35 661.086 1245.66 644.867C1339.8 628.494 1431.66 603.553 1517.12 572.338C1604.86 540.358 1672.04 487.263 1757.04 452.069C1752.7 453.906 1744.47 451.304 1739.9 453.14C1677.98 478.847 1624.51 511.592 1567.84 542.041C1507.98 574.48 1438.74 595.443 1368.14 614.876C1176.43 667.513 969.406 684.497 764.443 669.349C620.031 658.638 473.335 636.91 334.18 609.061C207.591 583.661 106.138 536.227 42.387 457.578C36.903 458.037 31.1906 458.343 25.478 458.802C127.845 474.409 218.788 510.061 318.87 530.106C430.149 552.293 553.538 541.123 668.245 548.315C795.29 556.425 917.994 578.612 1046.41 568.207C1193.79 556.425 1348.03 515.876 1479.42 471.196C1626.57 421.161 1752.93 344.654 1805.03 237.544C1804.8 238.156 1790.86 238.615 1789.03 238.615C1666.33 248.867 1589.78 323.844 1475.07 348.173C1334.55 377.858 1189.68 404.329 1046.87 428.505C840.99 463.392 627.344 431.871 419.181 422.997C357.03 420.395 303.104 408.613 250.321 386.885C183.142 359.037 142.012 308.695 62.2664 295.995C58.1535 295.383 48.5564 298.749 45.1289 297.219C176.516 358.272 350.86 361.179 503.269 379.082C595.354 389.793 676.699 387.191 766.956 375.715C872.751 362.25 975.804 344.348 1082.74 334.402C1155.4 327.669 1227.61 318.029 1298.9 306.4C1361.74 296.301 1425.49 287.121 1488.1 276.257C1574.24 261.261 1643.48 225.15 1709.06 186.438C1705.63 188.427 1695.57 185.519 1691.92 187.662" fill="#BCBEC0" fill-opacity="0.2"/>
<path d="M1659.01 454.059C1577.9 483.591 1483.76 482.826 1402.64 512.816C1401.73 513.122 1399.67 523.221 1400.35 524.139C1402.64 526.74 1404.92 529.495 1406.98 532.096C1407.67 528.271 1408.58 524.445 1409.27 520.773C1323.12 555.201 1245.2 590.547 1144.44 601.87C1032.47 614.417 918.908 604.471 808.086 624.822C805.801 625.281 808.086 635.839 805.801 636.145C915.937 615.947 1029.96 622.221 1142.15 613.193C1242 605.083 1322.89 565.606 1406.75 532.096C1407.89 531.637 1409.72 521.538 1409.04 520.773C1406.75 518.019 1404.47 515.417 1402.18 512.663C1401.5 516.489 1400.81 520.161 1399.9 523.986C1481.01 493.996 1575.16 494.761 1656.27 465.229C1659.24 464.005 1655.59 454.824 1658.56 453.906" fill="#BCBEC0" fill-opacity="0.2"/>
<path d="M1595.49 361.18C1376.36 391.324 1177.11 475.175 955.468 495.526C790.035 510.674 612.263 488.028 450.943 462.934C303.332 439.982 150.467 404.483 37.1314 334.708C41.2444 337.31 43.5293 341.135 47.6423 343.736C161.663 414.122 313.158 447.785 461.225 472.115C624.373 498.892 798.032 515.265 965.75 504.554C1077.26 497.362 1187.39 463.393 1291.36 437.228C1396.01 410.909 1495.64 385.509 1605.77 370.361C1603.49 370.667 1598.01 361.027 1595.26 361.333" fill="#BCBEC0" fill-opacity="0.2"/>
<path d="M117.334 191.487C193.196 220.713 266.315 251.469 349.032 271.667L359.314 262.486C317.271 259.885 285.509 265.087 249.406 279.47C246.893 280.388 241.409 288.804 239.124 288.651C321.612 294.772 400.673 316.806 484.303 314.357C487.731 314.357 491.387 305.024 494.586 305.177C343.776 298.903 216.046 305.789 82.6025 249.786C82.1455 249.786 72.5485 259.119 72.5485 259.119C206.22 314.969 333.494 308.084 484.532 314.357C487.959 311.297 491.387 308.39 494.814 305.177C411.183 307.472 332.123 285.438 249.635 279.47C246.207 282.531 242.78 285.438 239.353 288.651C275.684 274.268 307.217 269.065 349.26 271.667C351.545 271.973 357.715 262.027 359.543 262.486C276.826 242.288 203.707 211.379 127.845 182.307C127.16 182.001 118.02 191.64 117.563 191.487" fill="#BCBEC0" fill-opacity="0.2"/>
</svg>
